<svg xmlns="http://www.w3.org/2000/svg" viewBox="0 0 542 542" fill="#0061bc"><path d="M419.08,117.56C391.4,65.65,340.46,32.33,282.83,28.42a192.44,192.44,0,0,0-25.64,0c-57.64,3.9-108.59,37.22-136.27,89.14C92,171.91,92.91,236,123.5,289L260.72,526.64a10.72,10.72,0,0,0,18.57,0L416.51,289c30.59-53,31.55-117.06,2.57-171.41ZM397.93,278.24,270,499.82,142.08,278.24c-26.87-46.53-27.7-102.82-2.23-150.59,24.54-46,67.83-74.38,118.79-77.83,3.74-.26,7.56-.38,11.37-.38s7.62.12,11.36.38h0c51,3.45,94.25,31.81,118.78,77.83,25.48,47.77,24.65,104.07-2.21,150.59Z"/><path d="M270,133.18a63.32,63.32,0,1,0,63.31,63.32A63.39,63.39,0,0,0,270,133.18Zm0,105.18a41.87,41.87,0,1,1,41.87-41.87A41.91,41.91,0,0,1,270,238.36Z"/></svg>