<svg xmlns="http://www.w3.org/2000/svg" viewBox="0 0 504 504" fill="#e75c00"><path d="M456.4,23.52a23.8,23.8,0,0,1,47.6,0A23.66,23.66,0,0,1,480.48,47C467,47.6,456.4,37,456.4,23.52Z"/><path d="M504,404.32a23.52,23.52,0,1,1-23.52-23.52A23.3,23.3,0,0,1,504,404.32Z"/><path d="M504,99.68a23.52,23.52,0,1,1-23.52-23.52A23.66,23.66,0,0,1,504,99.68Z"/><path d="M504,328.16a23.52,23.52,0,1,1-23.52-23.52A23.66,23.66,0,0,1,504,328.16Z"/><path d="M504,175.84a23.52,23.52,0,1,1-23.52-23.52A23.66,23.66,0,0,1,504,175.84Z"/><path d="M427.84,175.84a23.52,23.52,0,1,1-23.52-23.52A23.66,23.66,0,0,1,427.84,175.84Z"/><path d="M427.84,99.68a23.52,23.52,0,1,1-23.52-23.52A23.66,23.66,0,0,1,427.84,99.68Z"/><path d="M504,480.48A23.52,23.52,0,1,1,480.48,457C493.36,456.4,504,467,504,480.48Z"/><path d="M504,252a23.52,23.52,0,1,1-23.52-23.52A23.66,23.66,0,0,1,504,252Z"/><path d="M427.84,23.52a23.52,23.52,0,1,1-47,0,23.52,23.52,0,1,1,47,0Z"/><path d="M427.84,252a23.52,23.52,0,1,1-23.52-23.52A23.66,23.66,0,0,1,427.84,252Z"/><path d="M427.84,404.32a23.52,23.52,0,1,1-23.52-23.52A23.3,23.3,0,0,1,427.84,404.32Z"/><path d="M427.84,480.48A23.52,23.52,0,1,1,404.32,457C417.2,456.4,427.84,467,427.84,480.48Z"/><path d="M427.84,328.16a23.52,23.52,0,1,1-23.52-23.52A23.66,23.66,0,0,1,427.84,328.16Z"/><path d="M47.6,328.16a23.66,23.66,0,0,1-23.52,23.52,23.52,23.52,0,0,1,0-47A23.66,23.66,0,0,1,47.6,328.16Z"/><path d="M275.52,252A23.52,23.52,0,1,1,252,228.48,23.52,23.52,0,0,1,275.52,252"/><path d="M275.52,175.84A23.52,23.52,0,1,1,252,152.32,23.66,23.66,0,0,1,275.52,175.84Z"/><path d="M275.52,404.32A23.52,23.52,0,1,1,252,380.8,23.3,23.3,0,0,1,275.52,404.32Z"/><path d="M123.2,328.16a23.52,23.52,0,1,1-23.52-23.52A23.3,23.3,0,0,1,123.2,328.16Z"/><path d="M47.6,99.68a23.8,23.8,0,0,1-47.6,0,23.8,23.8,0,0,1,47.6,0Z"/><path d="M275.52,99.68A23.52,23.52,0,1,1,252,76.16,23.66,23.66,0,0,1,275.52,99.68Z"/><path d="M275.52,480.48A23.52,23.52,0,1,1,252,457C264.88,456.4,275.52,467,275.52,480.48Z"/><path d="M47.6,252A23.8,23.8,0,0,1,0,252a23.8,23.8,0,0,1,47.6,0Z"/><path d="M123.2,480.48A23.52,23.52,0,1,1,99.68,457C113.12,456.4,123.2,467,123.2,480.48Z"/><path d="M199.36,23.52a23.52,23.52,0,0,1-47,0,23.52,23.52,0,0,1,47,0Z"/><path d="M47.6,23.52A23.66,23.66,0,0,1,24.08,47C10.64,47.6,0,37,0,23.52a23.8,23.8,0,0,1,47.6,0Z"/><path d="M199.36,328.16a23.52,23.52,0,1,1-23.52-23.52A23.66,23.66,0,0,1,199.36,328.16Z"/><path d="M199.36,404.32a23.52,23.52,0,1,1-23.52-23.52A23.3,23.3,0,0,1,199.36,404.32Z"/><path d="M123.2,175.84a23.52,23.52,0,1,1-23.52-23.52A23.3,23.3,0,0,1,123.2,175.84Z"/><path d="M351.68,404.32a23.52,23.52,0,1,1-23.52-23.52A23.3,23.3,0,0,1,351.68,404.32Z"/><path d="M199.36,480.48A23.52,23.52,0,1,1,175.84,457C188.72,456.4,199.36,467,199.36,480.48Z"/><path d="M351.68,23.52a23.52,23.52,0,1,1-47,0,23.52,23.52,0,1,1,47,0Z"/><path d="M351.68,328.16a23.52,23.52,0,1,1-23.52-23.52A23.66,23.66,0,0,1,351.68,328.16Z"/><path d="M275.52,23.52a23.52,23.52,0,1,1-47,0,23.52,23.52,0,1,1,47,0Z"/><path d="M351.68,480.48A23.52,23.52,0,1,1,328.16,457,23.3,23.3,0,0,1,351.68,480.48Z"/><path d="M199.36,175.84a23.52,23.52,0,1,1-23.52-23.52A23.66,23.66,0,0,1,199.36,175.84Z"/><path d="M47.6,175.84a23.66,23.66,0,0,1-23.52,23.52,23.52,23.52,0,0,1,0-47A23.66,23.66,0,0,1,47.6,175.84Z"/><path d="M351.68,252a23.52,23.52,0,1,1-23.52-23.52A23.66,23.66,0,0,1,351.68,252Z"/><path d="M351.68,175.84a23.52,23.52,0,1,1-23.52-23.52A23.66,23.66,0,0,1,351.68,175.84Z"/><path d="M123.2,23.52a23.52,23.52,0,1,1-47,0A23.66,23.66,0,0,1,99.68,0,23.3,23.3,0,0,1,123.2,23.52Z"/><path d="M275.52,328.16A23.52,23.52,0,1,1,252,304.64,23.66,23.66,0,0,1,275.52,328.16Z"/><path d="M47.6,480.48a23.8,23.8,0,0,1-47.6,0A23.66,23.66,0,0,1,23.52,457C37,456.4,47.6,467,47.6,480.48Z"/><path d="M47.6,404.32a23.66,23.66,0,0,1-23.52,23.52A23.66,23.66,0,0,1,.56,404.32c-.56-13.44,10.08-23.52,23-23.52,13.44,0,24.08,10.08,24.08,23.52Z"/><path d="M199.36,252a23.52,23.52,0,1,1-23.52-23.52A23.66,23.66,0,0,1,199.36,252Z"/><path d="M123.2,404.32A23.52,23.52,0,1,1,99.68,380.8C113.12,380.8,123.2,390.88,123.2,404.32Z"/><path d="M351.68,99.68a23.52,23.52,0,1,1-23.52-23.52A23.66,23.66,0,0,1,351.68,99.68Z"/><path d="M199.36,99.68a23.52,23.52,0,1,1-23.52-23.52A23.66,23.66,0,0,1,199.36,99.68Z"/><path d="M123.2,99.68A23.52,23.52,0,1,1,99.68,76.16,23.3,23.3,0,0,1,123.2,99.68Z"/><path d="M123.2,252a23.52,23.52,0,1,1-23.52-23.52A23.3,23.3,0,0,1,123.2,252Z"/></svg>