<svg xmlns="http://www.w3.org/2000/svg" viewBox="0 0 302 301" fill="#378e00"><path d="M255.16,55.8A40,40,0,0,0,220.44,76L86.6,44.6A40,40,0,0,0,46.84,6.52,40.52,40.52,0,0,0,6.52,46.84c0,17.93,12.32,33.61,29.12,38.64v131.6c-16.8,5-29.12,20.16-29.12,38.65a40.51,40.51,0,0,0,40.32,40.32c17.92,0,33.6-12.32,38.64-29.13H170c5,16.81,20.16,29.13,38.64,29.13A40.52,40.52,0,0,0,249,255.73c0-14-7.28-25.77-17.92-33L255.16,137h.55A40.52,40.52,0,0,0,296,96.69c-.55-22.41-18.47-40.89-40.87-40.89Zm0,57.68a17.92,17.92,0,1,1,17.92-17.92A17.69,17.69,0,0,1,255.16,113.48ZM28.92,46.84a17.92,17.92,0,0,1,35.84,0A17.69,17.69,0,0,1,46.84,64.76c-10.08-.56-17.92-8.4-17.92-17.92ZM64.2,255.16a17.93,17.93,0,1,1-17.93-17.92C56.36,237.8,64.2,245.64,64.2,255.16Zm161.28,0a18,18,0,0,1-17.93,17.92c-10.07,0-17.35-7.84-17.35-17.92a18,18,0,0,1,17.92-17.92C218.2,237.24,225.48,245.64,225.48,255.16Zm-16.8-39.76h-1.13c-17.92,0-33.6,12.32-38.64,29.12h-84a40.86,40.86,0,0,0-27.44-27.44V84.92A39,39,0,0,0,81,66.44L214.84,98.36a40.53,40.53,0,0,0,17.92,31.36Z"/></svg>