<svg width="27" height="46" viewBox="0 0 27 46" fill="none" xmlns="http://www.w3.org/2000/svg">
   <path d="M4.34029 28.501C4.35005 28.5003 4.35634 28.5001 4.35892 28.5H22.6411C22.6437 28.5001 22.6499 28.5003 22.6597 28.501C22.6795 28.5024 22.7133 28.5054 22.7593 28.5122C22.8512 28.5258 22.9909 28.5542 23.1628 28.6134C23.5044 28.731 23.9791 28.9724 24.4633 29.4727C25.4288 30.4704 26.5 32.573 26.5 37C26.5 41.427 25.4288 43.5296 24.4633 44.5273C23.9791 45.0276 23.5044 45.269 23.1628 45.3866C22.9909 45.4458 22.8512 45.4742 22.7593 45.4878C22.7133 45.4946 22.6795 45.4976 22.6597 45.499C22.65 45.4997 22.6437 45.4999 22.6411 45.5H4.35889C4.3563 45.4999 4.35002 45.4997 4.34029 45.499C4.32054 45.4976 4.28668 45.4946 4.24074 45.4878C4.14877 45.4742 4.00905 45.4458 3.83723 45.3866C3.49557 45.269 3.02087 45.0276 2.53672 44.5273C1.57122 43.5296 0.5 41.427 0.5 37C0.5 32.573 1.57122 30.4704 2.53672 29.4727C3.02087 28.9724 3.49557 28.731 3.83723 28.6134C4.00905 28.5542 4.14877 28.5258 4.24074 28.5122C4.28668 28.5054 4.32054 28.5024 4.34029 28.501ZM22.6401 45.5L22.641 45.5L22.6401 45.5Z" fill="#101010" stroke="#101010"/>
   <line x1="6" y1="33" x2="6" y2="41" stroke="white" stroke-width="2" stroke-linecap="round"/>
   <line x1="11" y1="33" x2="11" y2="41" stroke="white" stroke-width="2" stroke-linecap="round"/>
   <line x1="16" y1="33" x2="16" y2="41" stroke="white" stroke-width="2" stroke-linecap="round"/>
   <line x1="21" y1="33" x2="21" y2="41" stroke="white" stroke-width="2" stroke-linecap="round"/>
   <path d="M11 2C11 1.44772 11.4477 1 12 1H15C15.5523 1 16 1.44772 16 2V29H11V2Z" stroke="#101010" stroke-width="2"/>
   </svg>
   