<?xml version="1.0" encoding="UTF-8" standalone="no"?>
<svg
   width="31"
   height="22"
   viewBox="0 0 31 22"
   fill="black"
   version="1.1"
   id="svg28"
   xmlns="http://www.w3.org/2000/svg"
   xmlnsSvg="http://www.w3.org/2000/svg">
  <defs
     id="defs32" />
  <path
     d="m 6.586974,19.996883 c -0.0031,-9.5e-5 -0.010213,-4.68e-4 -0.021068,-0.0012 -0.021724,-0.0017 -0.058399,-0.005 -0.1078468,-0.0128 C 6.3591233,19.96735 6.2093915,19.935339 6.0254554,19.868866 5.6598222,19.736705 5.1507211,19.465955 4.6311388,18.90498 3.5915586,17.782501 2.458277,15.438488 2.4578976,10.557723 2.457534,5.6769611 3.5904337,3.3374856 4.6298392,2.2192749 5.1493363,1.6603848 5.6583939,1.3916307 6.0240075,1.2610212 6.2079319,1.1953143 6.3576574,1.1638571 6.4565976,1.148824 c 0.049444,-0.00753 0.08611,-0.010901 0.1078423,-0.012425 0.010854,-7.601e-4 0.017967,-0.00106 0.021068,-0.00117 l 5.676e-4,-8e-6 19.2437065,0.038823 -19.7542356,-0.0435 c 0,0 -4.0767674,-0.45374252 -4.0759973,9.426187 7.656e-4,9.879918 4.5843523,9.889177 4.5843523,9.889177 m 0.00309,-0.44908 -0.0013,-5e-6 h -8.325e-4 m 0.0022,6e-6 h 2.8e-5 l 0.0015,4e-6 1.828e-4,1e-6 -0.0012,-3e-6 m -5.686e-4,-1e-6 5.686e-4,1e-6 m -0.0028,-8e-6 0.0028,8e-6 m -0.0028,-8e-6 c -4.587e-4,-10e-7 -9.074e-4,-2e-6 -9.512e-4,0.449087 m 9.512e-4,-0.449087 -9.074e-4,-2e-6 -0.5966501,0.343845 m 0.6002329,-0.343837 19.2437179,0.03888 m 0,0 -9.41e-4,-1e-6 0.0015,4e-6 v 0 m -5.48e-4,-1e-6 0.0029,8e-6 m -0.0029,-8e-6 5.48e-4,1e-6 m 0,0 0.0013,1e-6 8.22e-4,3e-6 m -0.0023,-7e-6 c 0.0014,-8.6e-5 0.0039,-1.71e-4 0.0072,-3.45e-4 0.0035,-1.74e-4 0.0083,-4.33e-4 0.01384,-6.63e-4 0.02174,-0.0016 0.05837,-0.005 0.107803,-0.01246 0.09901,-0.01506 -0.709009,0.556781 -0.525122,0.491021 0.36567,-0.130662 0.534533,0.245277 2.104278,-1.637482 1.039371,-1.118313 2.065141,-3.365892 2.064761,-8.246657 C 29.604016,5.7483499 28.825465,3.3884456 27.785818,2.2660348 27.266262,1.7050455 26.757192,1.4342341 26.391503,1.3021472 26.207601,1.235697 26.057902,1.2036349 25.958893,1.188202 c -0.04943,-0.00772 -0.08609,-0.01125 -0.107804,-0.012858 -0.01089,-8.023e-4 -0.01797,-0.00113 -0.02109,-0.00123 L 25.46544,20.672452 m 0.368259,-0.636754 c 4.58e-4,3e-6 0.512357,-1.281215 0.512406,-0.832125 m -0.512406,0.832125 h 8.82e-4 l 0.971117,-1.027599 M 25.567984,20.040905 6.5537557,20.44243"
     fill="#101010"
     stroke="#101010"
     id="path18"
     style="stroke-width:0.907399" />
  <line
     x1="8"
     y1="6"
     x2="8"
     y2="16"
     stroke="#AEAEAE"
     stroke-width="2"
     stroke-linecap="round"
     id="line20" />
  <line
     x1="13"
     y1="6"
     x2="13"
     y2="16"
     stroke="#AEAEAE"
     stroke-width="2"
     stroke-linecap="round"
     id="line22" />
  <line
     x1="18"
     y1="6"
     x2="18"
     y2="16"
     stroke="#AEAEAE"
     stroke-width="2"
     stroke-linecap="round"
     id="line24" />
  <line
     x1="23"
     y1="6"
     x2="23"
     y2="16"
     stroke="#AEAEAE"
     stroke-width="2"
     stroke-linecap="round"
     id="line26" />
  <path
     style="fill:#101010;fill-opacity:1;stroke-width:0.0258824"
     d="M 4.7816722,20.92349 C 4.2232357,20.777999 3.6119905,20.353363 3.1336324,19.778586 2.0466145,18.472467 1.3679606,16.344654 1.121654,13.470342 0.99518802,11.994529 0.99599112,9.9858027 1.123646,8.4879886 1.395197,5.3017967 2.2278647,2.9808099 3.5315147,1.7762689 3.9065503,1.4297452 4.3911778,1.1504874 4.79583,1.0477302 4.9992109,0.99608376 5.0684685,0.99575136 15.24584,0.99756756 l 10.245271,0.00183 -0.0018,9.99058844 -0.0018,9.990588 -10.255882,-0.0032 C 5.1447463,20.974115 4.972583,20.973228 4.7816722,20.92349 Z m 3.5575601,-3.982946 c 0.2985014,-0.10264 0.5520501,-0.36659 0.638729,-0.664933 C 9.0323177,16.088519 9.0341385,5.8855761 8.9798489,5.6984649 8.8931777,5.399751 8.6413503,5.1376481 8.3389389,5.0314032 8.1123327,4.9517905 7.8046043,4.9702555 7.5793467,5.0769823 7.2673357,5.2248125 7.0611733,5.5064611 7.0109333,5.85352 c -0.034837,0.2406572 -0.036583,10.025664 -0.00183,10.266333 0.05805,0.402023 0.3217636,0.7119 0.7109265,0.835376 0.1607612,0.05101 0.4479669,0.0442 0.6192047,-0.01468 z m 5.0910727,-0.03415 c 0.225398,-0.108061 0.369938,-0.251239 0.481592,-0.477054 l 0.09767,-0.197538 9.36e-4,-5.243865 9.36e-4,-5.2438616 -0.0976,-0.1975725 c -0.111063,-0.2248213 -0.254248,-0.367263 -0.481421,-0.4789211 -0.130952,-0.064364 -0.17286,-0.071544 -0.417859,-0.071588 -0.254765,-4.55e-5 -0.283288,0.00535 -0.442733,0.083813 -0.205247,0.1009975 -0.387032,0.2860878 -0.48393,0.4927305 l -0.0694,0.1479848 -9.4e-4,5.2670589 -9.4e-4,5.267058 0.06883,0.146899 c 0.121452,0.259198 0.355401,0.467087 0.62433,0.55478 0.06931,0.0226 0.193967,0.0327 0.342003,0.02771 0.189269,-0.0064 0.260236,-0.02093 0.378517,-0.07764 z m 4.99519,0.0047 c 0.265314,-0.122102 0.468654,-0.358373 0.551194,-0.640459 0.03697,-0.126341 0.04123,-0.661107 0.04205,-5.281766 8.25e-4,-4.6206593 -0.0033,-5.1554276 -0.04017,-5.2817808 -0.08222,-0.281367 -0.284297,-0.5167902 -0.550965,-0.6418858 -0.128203,-0.060141 -0.177666,-0.068236 -0.417212,-0.068278 -0.240681,-4.3e-5 -0.288692,0.00788 -0.419773,0.069291 -0.207372,0.097149 -0.392799,0.2793325 -0.493344,0.4847096 l -0.08348,0.1705271 -9.4e-4,5.2670299 -9.4e-4,5.267059 0.0689,0.146977 c 0.121553,0.259283 0.355324,0.467008 0.624257,0.554702 0.179205,0.05844 0.543926,0.03507 0.720416,-0.04615 z m 5.023425,-0.01459 c 0.203068,-0.09992 0.385358,-0.285946 0.48184,-0.491702 l 0.0694,-0.147985 9.4e-4,-5.267085 9.4e-4,-5.2670593 L 23.9327,5.5746633 C 23.83587,5.367973 23.65415,5.1828177 23.448939,5.081747 23.289522,5.003231 23.261001,4.997822 23.006236,4.997776 22.761237,4.9977323 22.719327,5.004896 22.588352,5.069214 22.361139,5.1807911 22.217903,5.3231816 22.10676,5.5479633 l -0.09767,0.1975379 -9.36e-4,5.2425188 -9.35e-4,5.242518 0.07996,0.168251 c 0.09608,0.202186 0.184781,0.311432 0.339078,0.417631 0.200263,0.137838 0.352658,0.179925 0.618758,0.170883 0.203385,-0.0069 0.25858,-0.01932 0.403912,-0.09084 z"
     id="path884" />
  <path
     style="fill:#101010;fill-opacity:1;stroke-width:0.0258824"
     d="m 25.49276,7.7258824 c -9e-6,-0.4697648 0.0035,-0.6655927 0.0078,-0.4351733 0.0043,0.2304194 0.0043,0.6147724 1.8e-5,0.8541176 -0.0043,0.2393453 -0.0078,0.05082 -0.0078,-0.4189443 z"
     id="path1957" />
</svg>
